# xmcd
#
# Track frame offsets: 
#        150
#        16045
#        38866
#        58461
#        75377
#        97262
#        113070
#        139636
#        160744
#        183228
#        204662
#        224818
#
# Disc length: 3215 seconds
#
# Revision: 0
# Processed by: cddbd v1.5.2PL0 Copyright (c) Steve Scherf et al.
# Submitted via: ExactAudioCopyFreeDBPlugin 1.0
#
DISCID=a70c8d0c
DTITLE=Ben Harper - Give Till It's Gone
DYEAR=2011
DGENRE=Rock
TTITLE0=Don't Give Up On Me Now
TTITLE1=I Will Not Be Broken
TTITLE2=Rock N' Roll Is Free
TTITLE3=Feel Love
TTITLE4=Spilling Faith
TTITLE5=Get There From Here
TTITLE6=Clearly Severely
TTITLE7=Pray That Our Love Sees The Dawn
TTITLE8=Waiting On A Sign
TTITLE9=Dirty Little Lover
TTITLE10=Do It For You, Do It For Us
TTITLE11=Feel Love (Acoustic)
EXTD=
EXTT0=
EXTT1=
EXTT2=
EXTT3=
EXTT4=
EXTT5=
EXTT6=
EXTT7=
EXTT8=
EXTT9=
EXTT10=
EXTT11=
PLAYORDER=
